<svg width="53" height="53" viewBox="0 0 53 53" fill="none" xmlns="http://www.w3.org/2000/svg">
<g filter="url(#filter0_d_0_1)">
<circle cx="26.5" cy="22.5" r="22.5" fill="#3E8B3A"/>
</g>
<path d="M40 24.5C40.8284 24.5 41.5 23.8284 41.5 23C41.5 22.1716 40.8284 21.5 40 21.5V24.5ZM12.9393 21.9393C12.3536 22.5251 12.3536 23.4749 12.9393 24.0607L22.4853 33.6066C23.0711 34.1924 24.0208 34.1924 24.6066 33.6066C25.1924 33.0208 25.1924 32.0711 24.6066 31.4853L16.1213 23L24.6066 14.5147C25.1924 13.9289 25.1924 12.9792 24.6066 12.3934C24.0208 11.8076 23.0711 11.8076 22.4853 12.3934L12.9393 21.9393ZM40 21.5L14 21.5V24.5L40 24.5V21.5Z" fill="#F1F1F2"/>
<defs>
<filter id="filter0_d_0_1" x="0" y="0" width="53" height="53" filterUnits="userSpaceOnUse" color-interpolation-filters="sRGB">
<feFlood flood-opacity="0" result="BackgroundImageFix"/>
<feColorMatrix in="SourceAlpha" type="matrix" values="0 0 0 0 0 0 0 0 0 0 0 0 0 0 0 0 0 0 127 0" result="hardAlpha"/>
<feOffset dy="4"/>
<feGaussianBlur stdDeviation="2"/>
<feComposite in2="hardAlpha" operator="out"/>
<feColorMatrix type="matrix" values="0 0 0 0 0 0 0 0 0 0 0 0 0 0 0 0 0 0 0.3 0"/>
<feBlend mode="normal" in2="BackgroundImageFix" result="effect1_dropShadow_0_1"/>
<feBlend mode="normal" in="SourceGraphic" in2="effect1_dropShadow_0_1" result="shape"/>
</filter>
</defs>
</svg>
