<svg width="252" height="36" viewBox="0 0 252 36" fill="none" xmlns="http://www.w3.org/2000/svg">
<path d="M19.6725 24.968L19.7685 18.44C19.7685 17.992 20.2325 17.704 21.1605 17.576C22.0885 17.416 22.8565 17.336 23.4645 17.336L25.3365 17.48C26.5525 17.672 27.1605 18.008 27.1605 18.488L26.9685 33.512C26.3285 33.96 25.0325 34.408 23.0805 34.856C21.1605 35.272 18.9525 35.48 16.4565 35.48C11.8165 35.48 8.0725 33.976 5.2245 30.968C2.3765 27.96 0.952497 23.544 0.952497 17.72C0.952497 12.76 2.3445 8.728 5.1285 5.624C7.9125 2.52 11.7685 0.967998 16.6965 0.967998C18.9365 0.967998 20.9525 1.192 22.7445 1.64C24.5685 2.056 25.8165 2.632 26.4885 3.368C26.5205 3.624 26.5365 4.104 26.5365 4.808C26.5365 5.512 26.2965 6.52 25.8165 7.832C25.3365 9.112 24.7925 10.072 24.1845 10.712C23.5765 11.352 23.1285 11.672 22.8405 11.672C22.5845 11.672 22.2965 11.56 21.9765 11.336C21.6885 11.08 21.0965 10.824 20.2005 10.568C19.3045 10.28 18.4405 10.136 17.6085 10.136C15.6245 10.136 14.0085 10.776 12.7605 12.056C11.5445 13.336 10.9365 15.32 10.9365 18.008C10.9365 20.696 11.5605 22.744 12.8085 24.152C14.0885 25.528 15.5445 26.216 17.1765 26.216C18.8405 26.216 19.6725 25.8 19.6725 24.968ZM50.781 35.48C46.301 35.48 42.637 34.008 39.789 31.064C36.973 28.12 35.565 23.832 35.565 18.2C35.565 12.536 36.989 8.248 39.837 5.336C42.717 2.424 46.413 0.967998 50.925 0.967998C55.469 0.967998 59.133 2.408 61.917 5.288C64.701 8.136 66.093 12.472 66.093 18.296C66.093 24.088 64.669 28.408 61.821 31.256C58.973 34.072 55.293 35.48 50.781 35.48ZM50.829 10.184C49.293 10.184 47.997 10.888 46.941 12.296C45.917 13.704 45.405 15.688 45.405 18.248C45.405 20.776 45.901 22.728 46.893 24.104C47.885 25.448 49.181 26.12 50.781 26.12C52.413 26.12 53.725 25.432 54.717 24.056C55.741 22.68 56.253 20.712 56.253 18.152C56.253 15.592 55.725 13.624 54.669 12.248C53.645 10.872 52.365 10.184 50.829 10.184ZM89.0029 35.48C84.5229 35.48 80.8589 34.008 78.0109 31.064C75.1949 28.12 73.7869 23.832 73.7869 18.2C73.7869 12.536 75.2109 8.248 78.0589 5.336C80.9389 2.424 84.6349 0.967998 89.1469 0.967998C93.6909 0.967998 97.3549 2.408 100.139 5.288C102.923 8.136 104.315 12.472 104.315 18.296C104.315 24.088 102.891 28.408 100.043 31.256C97.1949 34.072 93.5149 35.48 89.0029 35.48ZM89.0509 10.184C87.5149 10.184 86.2189 10.888 85.1629 12.296C84.1389 13.704 83.6269 15.688 83.6269 18.248C83.6269 20.776 84.1229 22.728 85.1149 24.104C86.1069 25.448 87.4029 26.12 89.0029 26.12C90.6349 26.12 91.9469 25.432 92.9389 24.056C93.9629 22.68 94.4749 20.712 94.4749 18.152C94.4749 15.592 93.9469 13.624 92.8909 12.248C91.8669 10.872 90.5869 10.184 89.0509 10.184ZM112.969 32.792V3.992C112.969 3.192 113.161 2.568 113.545 2.12C113.961 1.64 114.489 1.4 115.129 1.4H123.145C128.233 1.4 132.089 2.68 134.713 5.24C137.369 7.8 138.697 11.832 138.697 17.336C138.697 29.112 133.673 35 123.625 35H115.417C113.785 35 112.969 34.264 112.969 32.792ZM122.185 10.52V24.872C122.185 25.544 122.233 25.976 122.329 26.168C122.425 26.328 122.713 26.408 123.193 26.408C124.953 26.408 126.281 25.752 127.177 24.44C128.105 23.128 128.569 20.952 128.569 17.912C128.569 14.84 128.089 12.84 127.129 11.912C126.201 10.984 124.713 10.52 122.665 10.52H122.185ZM159.226 30.68C159.226 29.752 159.498 28.68 160.042 27.464C160.586 26.216 161.178 25.368 161.818 24.92C163.034 25.816 164.266 26.264 165.514 26.264L167.002 26.024C168.73 25.512 169.626 24.136 169.69 21.896V9.656H165.85C165.306 9.656 164.922 8.968 164.698 7.592C164.602 6.92 164.554 6.232 164.554 5.528C164.554 4.824 164.602 4.136 164.698 3.464C164.922 2.088 165.306 1.4 165.85 1.4H177.274C177.914 1.4 178.394 1.592 178.714 1.976C179.034 2.328 179.194 2.76 179.194 3.272V25.928C179.194 29.064 178.138 31.448 176.026 33.08C173.946 34.712 171.434 35.528 168.49 35.528C165.578 35.528 163.306 35.096 161.674 34.232C160.042 33.368 159.226 32.184 159.226 30.68ZM202.422 35.48C197.942 35.48 194.278 34.008 191.43 31.064C188.614 28.12 187.206 23.832 187.206 18.2C187.206 12.536 188.63 8.248 191.478 5.336C194.358 2.424 198.054 0.967998 202.566 0.967998C207.11 0.967998 210.774 2.408 213.558 5.288C216.342 8.136 217.734 12.472 217.734 18.296C217.734 24.088 216.31 28.408 213.462 31.256C210.614 34.072 206.934 35.48 202.422 35.48ZM202.47 10.184C200.934 10.184 199.638 10.888 198.582 12.296C197.558 13.704 197.046 15.688 197.046 18.248C197.046 20.776 197.542 22.728 198.534 24.104C199.526 25.448 200.822 26.12 202.422 26.12C204.054 26.12 205.366 25.432 206.358 24.056C207.382 22.68 207.894 20.712 207.894 18.152C207.894 15.592 207.366 13.624 206.31 12.248C205.286 10.872 204.006 10.184 202.47 10.184ZM249.956 10.088C249.956 13.416 248.516 15.944 245.636 17.672C247.204 18.248 248.516 19.24 249.572 20.648C250.628 22.056 251.156 24.056 251.156 26.648C251.156 29.208 250.196 31.24 248.276 32.744C246.388 34.248 243.668 35 240.116 35H228.788C228.244 35 227.796 34.824 227.444 34.472C227.092 34.088 226.916 33.592 226.916 32.984V2.264C226.916 1.912 226.964 1.688 227.06 1.592C227.188 1.464 227.428 1.4 227.78 1.4H238.724C246.212 1.4 249.956 4.296 249.956 10.088ZM236.132 9.176V15.464H236.372C239.444 15.464 240.98 14.44 240.98 12.392C240.98 11.272 240.676 10.456 240.068 9.944C239.492 9.432 238.516 9.176 237.14 9.176H236.132ZM236.132 21.128V27.368H236.996C238.372 27.368 239.38 27.112 240.02 26.6C240.66 26.088 240.98 25.272 240.98 24.152C240.98 23.032 240.676 22.248 240.068 21.8C239.492 21.352 238.516 21.128 237.14 21.128H236.132Z" fill="#3E8B3A"/>
</svg>
